<?xml version="1.0" standalone="no"?>
<!DOCTYPE svg PUBLIC "-//W3C//DTD SVG 20010904//EN"
 "http://www.w3.org/TR/2001/REC-SVG-20010904/DTD/svg10.dtd">
<svg version="1.0" xmlns="http://www.w3.org/2000/svg"
 width="1423.000000pt" height="1105.000000pt" viewBox="0 0 1423.000000 1105.000000"
 preserveAspectRatio="xMidYMid meet">

<g transform="translate(0.000000,1105.000000) scale(0.100000,-0.100000)"
fill="#000000" stroke="none">
<path d="M0 5525 l0 -5525 7115 0 7115 0 0 5525 0 5525 -7115 0 -7115 0 0
-5525z m8308 2819 c63 -26 122 -95 122 -142 0 -10 -21 -46 -46 -80 -45 -60
-46 -63 -29 -82 18 -20 14 -50 -6 -50 -7 0 -20 7 -30 16 -16 14 -19 14 -35
-10 -16 -25 -16 -28 1 -46 10 -11 15 -26 12 -35 -8 -20 -44 -19 -55 2 -8 14
-12 13 -27 -11 -17 -25 -17 -27 0 -46 19 -21 14 -50 -8 -50 -8 0 -20 7 -27 15
-11 13 -18 10 -51 -20 -22 -19 -45 -35 -52 -35 -6 0 -42 23 -79 50 -76 56 -84
77 -47 136 16 27 18 34 6 34 -8 0 -20 7 -27 16 -20 23 10 50 38 35 28 -15 30
-14 42 9 9 17 7 24 -11 39 -34 27 -19 54 25 46 28 -6 36 -3 50 16 15 22 15 24
-5 31 -14 5 -19 15 -17 30 3 23 17 27 50 13 12 -5 27 10 62 64 40 62 49 71 76
71 17 0 47 -7 68 -16z m-330 -566 c34 -24 61 -47 61 -51 1 -12 -92 -146 -101
-147 -11 0 -148 101 -148 110 0 18 103 141 115 136 7 -2 40 -24 73 -48z m-133
-169 c39 -28 70 -57 69 -63 -2 -17 -96 -146 -107 -146 -13 0 -147 101 -147
112 0 10 102 148 110 148 3 0 37 -23 75 -51z m-122 -184 c37 -25 67 -52 67
-59 0 -13 -87 -136 -96 -136 -3 0 -41 25 -84 56 l-79 57 21 31 c50 72 81 107
92 103 7 -3 42 -26 79 -52z m-53 -220 c6 -7 -6 -32 -31 -68 l-41 -58 -27 18
c-74 49 -141 99 -141 106 0 4 18 32 41 62 l41 55 75 -53 c41 -28 78 -56 83
-62z m-142 -109 c31 -23 49 -43 45 -49 -28 -49 -69 -97 -79 -93 -36 14 -164
118 -158 129 4 7 23 31 42 55 l34 43 32 -24 c17 -13 55 -41 84 -61z m-48 -178
c0 -13 -52 -88 -61 -88 -20 0 -179 123 -172 133 3 7 19 29 35 49 l29 37 84
-62 c47 -33 85 -65 85 -69z m-465 47 c33 -9 85 -27 115 -41 46 -21 58 -23 77
-13 20 11 30 7 90 -35 113 -78 109 -74 95 -96 -11 -18 -5 -28 52 -90 36 -38
77 -96 93 -127 24 -50 28 -70 28 -143 0 -129 -35 -184 -200 -315 -121 -96
-127 -110 -136 -295 -13 -262 -59 -390 -190 -522 -168 -172 -350 -193 -611
-70 -181 86 -400 263 -491 396 -140 207 -109 446 84 642 75 76 136 113 290
175 206 83 222 97 269 244 23 73 69 166 98 200 78 93 200 125 337 90z m2955
-2802 c3 -3 5 -149 5 -326 l0 -322 65 5 65 5 3 275 c1 171 6 278 13 285 5 5
53 17 106 26 l95 16 -6 -51 c-12 -107 -28 -517 -24 -655 l3 -143 -78 -45 c-43
-25 -80 -44 -82 -41 -2 2 -7 49 -11 106 -8 115 -2 110 -99 86 l-63 -16 -7
-104 c-8 -117 -1 -109 -110 -119 -38 -3 -84 -9 -101 -11 l-32 -6 18 79 c49
209 55 283 55 633 l0 336 90 -4 c50 -2 92 -6 95 -9z m-1947 -180 c10 -288 46
-533 99 -667 10 -27 16 -51 14 -54 -3 -3 -71 -24 -151 -47 l-145 -43 0 75 0
75 -37 -6 c-76 -14 -71 -8 -89 -108 -4 -26 -12 -38 -27 -41 -35 -9 -207 -20
-207 -14 0 3 16 63 36 133 54 199 94 451 122 789 l7 80 120 -3 c66 -1 145 2
175 7 30 5 60 9 66 10 7 1 13 -60 17 -186z m-3598 149 c43 -20 84 -61 106
-103 21 -42 42 -157 34 -194 -3 -14 -7 -36 -10 -50 -5 -24 -7 -25 -98 -25
l-92 0 3 58 c4 74 -16 125 -58 147 -45 23 -78 4 -112 -65 -71 -146 -59 -433
21 -519 33 -36 81 -42 119 -15 25 17 82 91 82 106 0 4 -41 8 -90 8 l-91 0 3
57 3 58 40 7 c22 4 106 7 188 7 l147 1 0 -70 c0 -67 -1 -70 -24 -70 -19 0 -27
-8 -37 -37 -33 -103 -109 -197 -193 -240 -223 -113 -396 95 -396 476 0 228 71
380 211 452 77 39 178 44 244 11z m2184 -148 c-26 -195 -31 -518 -11 -577 17
-47 60 -71 125 -69 43 1 132 15 180 28 15 5 17 -4 17 -94 l0 -99 -47 -6 c-127
-17 -213 -19 -261 -8 -177 43 -253 291 -223 726 7 94 16 186 20 205 l7 35 104
10 c58 6 106 10 107 10 1 -1 -7 -73 -18 -161z m2585 129 c3 -21 8 -66 12 -100
l6 -63 -106 0 -106 0 0 -237 c0 -140 6 -296 15 -377 8 -77 14 -140 12 -141 -1
-1 -43 -9 -94 -17 l-91 -14 -6 30 c-26 143 -32 569 -10 714 l7 42 -102 0 -101
0 0 90 0 90 68 1 c37 1 132 5 212 9 80 3 175 7 212 8 l66 2 6 -37z m-3545 -86
c99 -66 146 -185 146 -372 0 -137 -20 -220 -77 -315 -129 -214 -423 -142 -484
119 -52 218 46 504 198 580 63 31 160 26 217 -12z m-775 -1164 c38 -134 49
-164 55 -157 5 5 19 46 31 92 16 53 29 82 38 82 8 0 12 -6 10 -12 -3 -7 -18
-55 -33 -106 -24 -80 -31 -93 -48 -90 -19 3 -35 39 -82 189 -4 13 -2 19 9 19
8 0 17 -8 20 -17z m444 -91 c2 -86 0 -102 -13 -102 -12 0 -15 17 -15 106 0 80
3 105 13 102 8 -3 13 -36 15 -106z m332 15 c14 -48 28 -87 31 -87 3 0 16 38
29 85 22 82 34 104 47 91 9 -8 -47 -187 -64 -206 -19 -21 -29 -6 -63 95 -33
98 -36 119 -17 113 6 -3 23 -44 37 -91z m527 -12 c18 -55 29 -103 24 -108 -4
-4 -31 5 -60 22 l-52 31 -9 -24 c-9 -25 -28 -42 -37 -33 -4 5 51 187 64 210 3
4 12 7 21 5 10 -2 27 -39 49 -103z m683 10 l0 -95 50 0 c38 0 50 -4 50 -15 0
-13 -11 -15 -62 -13 l-63 3 -3 94 c-3 98 0 121 18 121 6 0 10 -36 10 -95z
m529 -7 c18 -59 28 -105 23 -110 -5 -5 -31 4 -61 21 l-52 31 -10 -30 c-6 -16
-17 -30 -25 -30 -18 0 -19 -6 17 107 37 116 35 113 58 113 13 0 25 -23 50
-102z m679 85 c5 -10 17 -48 27 -85 10 -38 21 -68 25 -68 4 0 16 32 26 71 20
77 34 104 52 98 7 -3 -2 -42 -24 -111 -28 -86 -39 -108 -54 -108 -18 0 -24 14
-80 193 -7 21 -6 27 5 27 8 0 18 -8 23 -17z m442 -93 c0 -91 -3 -110 -15 -110
-12 0 -15 19 -15 110 0 91 3 110 15 110 12 0 15 -19 15 -110z m415 85 c21 -20
25 -34 25 -83 0 -80 -19 -103 -88 -110 l-52 -5 0 112 0 111 45 0 c35 0 52 -6
70 -25z m484 -76 c40 -123 35 -135 -39 -90 -54 33 -51 34 -66 -16 -3 -13 -34
-19 -34 -7 0 10 60 196 66 206 3 4 13 8 22 8 14 0 26 -25 51 -101z"/>
<path d="M8157 8223 c-13 -12 -7 -43 8 -43 16 0 38 34 28 44 -8 8 -28 8 -36
-1z"/>
<path d="M8101 8133 c-18 -29 -20 -37 -9 -44 21 -14 26 -11 43 21 18 36 19 46
2 53 -7 3 -23 -11 -36 -30z"/>
<path d="M8290 8115 c-10 -12 -10 -19 -2 -27 13 -13 42 6 42 28 0 19 -24 18
-40 -1z"/>
<path d="M8041 8041 c-12 -17 -19 -35 -16 -41 11 -18 34 -11 51 16 15 23 16
27 2 40 -14 14 -18 13 -37 -15z"/>
<path d="M8232 8047 c-24 -26 -28 -42 -11 -52 14 -9 59 34 59 57 0 25 -22 23
-48 -5z"/>
<path d="M7997 7973 c-14 -13 -6 -33 13 -33 11 0 20 4 20 9 0 13 -26 32 -33
24z"/>
<path d="M8158 7955 c-22 -29 -23 -41 -3 -48 16 -7 58 40 52 57 -7 20 -32 16
-49 -9z"/>
<path d="M8102 7878 c7 -19 38 -22 38 -4 0 10 -9 16 -21 16 -12 0 -19 -5 -17
-12z"/>
<path d="M7150 6833 c1 -9 153 -121 175 -130 8 -3 15 0 15 6 0 6 -37 38 -82
71 -75 55 -108 71 -108 53z"/>
<path d="M7086 6741 c-3 -5 31 -36 77 -68 102 -74 104 -75 111 -64 5 8 -162
141 -177 141 -3 0 -8 -4 -11 -9z"/>
<path d="M7020 6658 c0 -7 40 -41 89 -75 84 -60 111 -73 111 -55 0 8 -184 142
-194 142 -4 0 -6 -6 -6 -12z"/>
<path d="M6966 6578 c9 -23 186 -140 196 -130 6 6 -24 34 -83 76 -88 63 -124
80 -113 54z"/>
<path d="M6880 6551 c-176 -54 -233 -262 -103 -382 112 -105 286 -71 354 67
20 43 30 146 15 161 -14 14 -36 -23 -36 -60 0 -57 -35 -123 -81 -154 -77 -51
-195 -29 -244 46 -66 100 -30 217 82 270 54 25 87 62 56 60 -10 0 -29 -4 -43
-8z"/>
<path d="M6849 6467 c-52 -35 -79 -82 -79 -137 0 -55 27 -102 79 -137 97 -66
241 15 241 135 0 124 -141 206 -241 139z"/>
<path d="M6280 6018 c-17 -23 -29 -46 -27 -52 4 -12 535 -396 548 -396 9 0 69
78 69 89 0 11 -536 401 -551 401 -5 0 -23 -19 -39 -42z"/>
<path d="M7814 3772 c-10 -6 -66 -322 -59 -330 2 -2 24 0 49 3 l46 7 0 164 c0
166 -3 178 -36 156z"/>
<path d="M5470 3822 c-79 -80 -92 -342 -20 -414 36 -35 54 -35 90 0 38 38 53
98 52 212 -1 100 -19 179 -48 211 -23 26 -41 24 -74 -9z"/>
<path d="M6111 2809 c-17 -50 -13 -67 19 -84 16 -8 31 -15 34 -15 5 0 -30 119
-37 127 -3 2 -10 -10 -16 -28z"/>
<path d="M7322 2801 c-7 -21 -12 -42 -12 -48 0 -8 51 -43 63 -43 5 0 -29 119
-36 126 -2 2 -9 -13 -15 -35z"/>
<path d="M8840 2770 c0 -77 1 -80 23 -80 36 0 57 30 57 83 0 52 -18 77 -56 77
-23 0 -24 -2 -24 -80z"/>
<path d="M9340 2795 c-7 -25 -11 -47 -9 -48 35 -25 59 -35 59 -26 0 14 -30
119 -34 119 -2 0 -9 -20 -16 -45z"/>
</g>
</svg>
